<svg xmlns="http://www.w3.org/2000/svg" width="468" height="220" viewBox="0 0 468 220" role="img" aria-labelledby="title desc">
  <title id="title">Mamaearth Vitamin C Face Wash demo barcode</title>
  <desc id="desc">EAN-13 barcode for the seeded GreenProof product Mamaearth Vitamin C Face Wash with code 8901000000132.</desc>
  <rect width="468" height="220" fill="#ffffff"/>
  <text x="234" y="24" text-anchor="middle" font-family="Arial, Helvetica, sans-serif" font-size="16" font-weight="700" fill="#162019">Mamaearth Vitamin C Face Wash</text>
  <text x="234" y="44" text-anchor="middle" font-family="Arial, Helvetica, sans-serif" font-size="11" letter-spacing="1.5" fill="#56655d">GreenProof demo barcode</text>
  <rect x="44" y="56" width="4" height="140" fill="#000000"/>
  <rect x="52" y="56" width="4" height="140" fill="#000000"/>
  <rect x="68" y="56" width="4" height="120" fill="#000000"/>
  <rect x="76" y="56" width="4" height="120" fill="#000000"/>
  <rect x="80" y="56" width="4" height="120" fill="#000000"/>
  <rect x="88" y="56" width="4" height="120" fill="#000000"/>
  <rect x="100" y="56" width="4" height="120" fill="#000000"/>
  <rect x="104" y="56" width="4" height="120" fill="#000000"/>
  <rect x="108" y="56" width="4" height="120" fill="#000000"/>
  <rect x="120" y="56" width="4" height="120" fill="#000000"/>
  <rect x="124" y="56" width="4" height="120" fill="#000000"/>
  <rect x="136" y="56" width="4" height="120" fill="#000000"/>
  <rect x="144" y="56" width="4" height="120" fill="#000000"/>
  <rect x="156" y="56" width="4" height="120" fill="#000000"/>
  <rect x="160" y="56" width="4" height="120" fill="#000000"/>
  <rect x="164" y="56" width="4" height="120" fill="#000000"/>
  <rect x="172" y="56" width="4" height="120" fill="#000000"/>
  <rect x="184" y="56" width="4" height="120" fill="#000000"/>
  <rect x="188" y="56" width="4" height="120" fill="#000000"/>
  <rect x="192" y="56" width="4" height="120" fill="#000000"/>
  <rect x="208" y="56" width="4" height="120" fill="#000000"/>
  <rect x="212" y="56" width="4" height="120" fill="#000000"/>
  <rect x="220" y="56" width="4" height="120" fill="#000000"/>
  <rect x="228" y="56" width="4" height="140" fill="#000000"/>
  <rect x="236" y="56" width="4" height="140" fill="#000000"/>
  <rect x="244" y="56" width="4" height="120" fill="#000000"/>
  <rect x="248" y="56" width="4" height="120" fill="#000000"/>
  <rect x="252" y="56" width="4" height="120" fill="#000000"/>
  <rect x="264" y="56" width="4" height="120" fill="#000000"/>
  <rect x="272" y="56" width="4" height="120" fill="#000000"/>
  <rect x="276" y="56" width="4" height="120" fill="#000000"/>
  <rect x="280" y="56" width="4" height="120" fill="#000000"/>
  <rect x="292" y="56" width="4" height="120" fill="#000000"/>
  <rect x="300" y="56" width="4" height="120" fill="#000000"/>
  <rect x="304" y="56" width="4" height="120" fill="#000000"/>
  <rect x="308" y="56" width="4" height="120" fill="#000000"/>
  <rect x="320" y="56" width="4" height="120" fill="#000000"/>
  <rect x="328" y="56" width="4" height="120" fill="#000000"/>
  <rect x="332" y="56" width="4" height="120" fill="#000000"/>
  <rect x="344" y="56" width="4" height="120" fill="#000000"/>
  <rect x="348" y="56" width="4" height="120" fill="#000000"/>
  <rect x="356" y="56" width="4" height="120" fill="#000000"/>
  <rect x="376" y="56" width="4" height="120" fill="#000000"/>
  <rect x="384" y="56" width="4" height="120" fill="#000000"/>
  <rect x="388" y="56" width="4" height="120" fill="#000000"/>
  <rect x="396" y="56" width="4" height="120" fill="#000000"/>
  <rect x="400" y="56" width="4" height="120" fill="#000000"/>
  <rect x="412" y="56" width="4" height="140" fill="#000000"/>
  <rect x="420" y="56" width="4" height="140" fill="#000000"/>
  <text x="20" y="206" font-family="Arial, Helvetica, sans-serif" font-size="22" fill="#162019">8</text>
  <text x="132" y="206" text-anchor="middle" font-family="Arial, Helvetica, sans-serif" font-size="22" letter-spacing="6" fill="#162019">901000</text>
  <text x="340" y="206" text-anchor="middle" font-family="Arial, Helvetica, sans-serif" font-size="22" letter-spacing="6" fill="#162019">000132</text>
</svg>
